<svg width="15" height="13" viewBox="0 0 15 13" fill="none" xmlns="http://www.w3.org/2000/svg">
<path d="M3.50887 12.2138C3.70414 12.409 4.02072 12.409 4.21598 12.2138L7.39796 9.03177C7.59322 8.83651 7.59322 8.51993 7.39796 8.32467C7.2027 8.12941 6.88612 8.12941 6.69085 8.32467L3.86243 11.1531L1.034 8.32467C0.838738 8.12941 0.522155 8.12941 0.326893 8.32467C0.131631 8.51993 0.131631 8.83651 0.326893 9.03177L3.50887 12.2138ZM3.36243 1.34021L3.36243 11.8602L4.36243 11.8602L4.36243 1.34021L3.36243 1.34021Z" fill="#090F32"/>
<path d="M10.3306 0.986684C10.5259 0.791422 10.8425 0.791422 11.0377 0.986684L14.2197 4.16867C14.415 4.36393 14.415 4.68051 14.2197 4.87577C14.0244 5.07103 13.7079 5.07103 13.5126 4.87577L10.6842 2.04734L7.85575 4.87577C7.66048 5.07103 7.3439 5.07103 7.14864 4.87577C6.95338 4.68051 6.95338 4.36393 7.14864 4.16866L10.3306 0.986684ZM10.1842 11.8602L10.1842 1.34024L11.1842 1.34024L11.1842 11.8602L10.1842 11.8602Z" fill="#090F32"/>
</svg>
