<svg width="23" height="15" viewBox="0 0 23 15" fill="none" xmlns="http://www.w3.org/2000/svg">
<path d="M0 1.18256C0 0.529451 0.529451 0 1.18256 0H21.246C21.8991 0 22.4286 0.529451 22.4286 1.18256C22.4286 1.83567 21.8991 2.36512 21.246 2.36512H1.18256C0.529451 2.36512 0 1.83567 0 1.18256ZM0 7.09537C0 6.44226 0.529451 5.91281 1.18256 5.91281H21.246C21.8991 5.91281 22.4286 6.44226 22.4286 7.09537C22.4286 7.74848 21.8991 8.27793 21.246 8.27793H1.18256C0.529451 8.27793 0 7.74848 0 7.09537ZM22.4286 13.0082C22.4286 12.3551 21.8991 11.8256 21.246 11.8256H1.18256C0.529451 11.8256 0 12.3551 0 13.0082C0 13.6613 0.529451 14.1907 1.18256 14.1907H21.246C21.8991 14.1907 22.4286 13.6613 22.4286 13.0082Z" fill="#F0272E"/>
</svg>
