<svg width="12" height="10" viewBox="0 0 12 10" fill="none" xmlns="http://www.w3.org/2000/svg">
<path d="M3.12126 9.48484C3.27542 9.639 3.52536 9.639 3.67952 9.48484L6.1917 6.97265C6.34586 6.81849 6.34586 6.56855 6.1917 6.41439C6.03754 6.26023 5.7876 6.26023 5.63344 6.41439L3.40039 8.64744L1.16734 6.41439C1.01318 6.26023 0.763239 6.26023 0.609079 6.41439C0.454919 6.56855 0.454919 6.81849 0.609079 6.97265L3.12126 9.48484ZM3.00564 0.900147L3.00564 9.2057L3.79514 9.2057L3.79514 0.900146L3.00564 0.900147Z" fill="#090F32"/>
<path d="M8.507 0.620999C8.66116 0.466839 8.9111 0.466839 9.06526 0.620999L11.5774 3.13318C11.7316 3.28734 11.7316 3.53728 11.5774 3.69144C11.4233 3.8456 11.1733 3.8456 11.0192 3.69144L8.78613 1.45839L6.55308 3.69144C6.39892 3.8456 6.14898 3.8456 5.99482 3.69144C5.84066 3.53728 5.84066 3.28734 5.99482 3.13318L8.507 0.620999ZM8.39138 9.20569L8.39138 0.90013L9.18088 0.90013L9.18088 9.20569L8.39138 9.20569Z" fill="#090F32"/>
</svg>
